<svg id="Layer_1" data-name="Layer 1" xmlns="http://www.w3.org/2000/svg" viewBox="0 0 28.35 48.19"><defs><style>.cls-1{fill:#fff;}</style></defs><path class="cls-1" d="M19.42,26.68c.32-.93-.1-1-.78-1-2.67,0-5.34,0-8,0H8l-.17.47c.26.19.53.54.8.54C12.25,26.7,15.84,26.68,19.42,26.68Z"/><path d="M.28,47.05c.8-3,1.62-6.08,2.39-9.13q4.57-18,9.11-36.1c.17-.67.36-1.15,1.22-.6-1.06,4.24-2.11,8.45-3.18,12.66L1.45,47.09c-.06.23-.14.45-.21.68C.76,47.75.06,48,.28,47.05Z"/><path d="M27.84,46.57l-1,.28Q20.39,24,14,1.35c.91-.47.93-.47,1.22.56q4,14.28,8.06,28.57,2.13,7.6,4.29,15.2a6,6,0,0,0,.27.65Z"/><path d="M19.42,26.68c-3.58,0-7.17,0-10.75,0-.27,0-.54-.35-.8-.54L8,25.65h2.58c2.68,0,5.35,0,8,0C19.32,25.64,19.74,25.75,19.42,26.68Z"/></svg>