<?xml version="1.0" encoding="utf-8"?>
<!-- Generator: Adobe Illustrator 25.2.3, SVG Export Plug-In . SVG Version: 6.00 Build 0)  -->
<svg version="1.1" id="Layer_1" xmlns="http://www.w3.org/2000/svg" xmlns:xlink="http://www.w3.org/1999/xlink" x="0px" y="0px"
	 viewBox="0 0 28.4 48.2" style="enable-background:new 0 0 28.4 48.2;" xml:space="preserve">
<path d="M0.3,47c0.8-3,1.6-6.1,2.4-9.1c3-12,6.1-24,9.1-36.1c0.2-0.7,0.4-1.1,1.2-0.6c-1.1,4.2-2.1,8.4-3.2,12.7L1.5,47.1
	c-0.1,0.2-0.1,0.5-0.2,0.7C0.8,47.8,0.1,48,0.3,47z"/>
<path d="M27.8,46.6l-1,0.3C22.5,31.6,18.3,16.4,14,1.4c0.9-0.5,0.9-0.5,1.2,0.6c2.7,9.5,5.4,19,8.1,28.6c1.4,5.1,2.8,10.1,4.3,15.2
	c0.1,0.2,0.2,0.4,0.3,0.7V46.6z"/>
<path d="M19.4,26.7c-3.6,0-7.2,0-10.8,0c-0.3,0-0.5-0.4-0.8-0.5L8,25.6h2.6c2.7,0,5.4,0,8,0C19.3,25.6,19.7,25.8,19.4,26.7z"/>
</svg>
