<?xml version="1.0" encoding="utf-8"?>
<!-- Generator: Adobe Illustrator 27.7.0, SVG Export Plug-In . SVG Version: 6.00 Build 0)  -->
<svg version="1.1" id="Layer_1" xmlns="http://www.w3.org/2000/svg" xmlns:xlink="http://www.w3.org/1999/xlink" x="0px" y="0px"
	 viewBox="0 0 28.4 48.2" style="enable-background:new 0 0 28.4 48.2;" xml:space="preserve">
<path d="M12.7,1C9.2,1.3,5.8,3.6,4.3,6.8c-1.6,3.5-2.5,7.3-3,11.9C1.2,19.7,1,23.7,1,23.7c0,0,0,0-0.5,0c0-0.8,0.1-1.6,0.1-2.4
	C0.9,19.2,1,17.1,1.4,15c0.4-3.2,1.4-6.3,3.1-9.1c1.8-3.1,5-5.1,8.6-5.3c0.2,0,0.1,0.2,0,0.4"/>
<path d="M0.5,25.6c0.4-0.1,0.3-0.1,0.6-0.1c-0.3,3.7,0.1,8.2,1.2,11.7c0.4,1.6,1,3.3,1.8,4.7c1.5,3,4.6,5,7.9,5.4
	c0.4,0,0.9-0.1,1.3,0v0.3c-0.3,0.1-0.7,0.1-1,0.1c-3.8-0.3-7.2-2.6-8.8-6c-2-3.8-2.7-8-3-12.2"/>
<path d="M27.8,25.6c0,0.8,0,1.4,0,2.2c-0.2,4.4-0.7,8.9-2.6,13c-1.8,4-4.7,6.5-9.2,6.9c-0.4,0-0.5,0-0.9,0l0-0.5
	c0.2-0.1,0.3,0,0.6,0c3.8-0.2,7.4-2.6,8.9-6.1c2-4.1,2.4-8.6,2.7-13.1c0-0.9,0-1.5,0-2.3L27.8,25.6z"/>
<path d="M15.3,0.5c3.4,0.4,6.5,1.7,8.4,4.5c2,2.9,3.3,6.2,3.6,9.7c0.4,2.7,0.4,5.4,0.6,8.1c0,0.4,0,0.7,0,1.1h-0.4
	c0-0.5,0-0.9,0-1.4c-0.2-4.8-0.1-9.5-2.3-14c-1.5-3.6-3.9-6.4-8-7.3c-0.6-0.1-1.3-0.2-2-0.3L15.3,0.5z"/>
</svg>
