<svg id="Layer_1" data-name="Layer 1" xmlns="http://www.w3.org/2000/svg" viewBox="0 0 28.35 48.19"><path d="M.23,21.15C.48,19.06.67,17,1,14.87A23.14,23.14,0,0,1,4.06,5.76,10.47,10.47,0,0,1,12.68.49a2.57,2.57,0,0,1,.48,0c.06,0,.12.08.41.27a5.59,5.59,0,0,1-1.11.36A10.08,10.08,0,0,0,4.29,6.66c-2.07,3.66-2.76,7.7-3.11,11.82C1,20.07,1,21.66,1,23.26c0,.53-.12.86-.73.77Z"/><path d="M.23,25.47c.87-.4.67.26.73.7.46,3.64.81,7.29,1.47,10.89A16.14,16.14,0,0,0,4.3,41.7,9.67,9.67,0,0,0,12,47c.41.05.82.14,1.23.21v.34a5.33,5.33,0,0,1-1,.11,10.51,10.51,0,0,1-8.78-6c-2-3.83-2.65-8-3-12.24-.06-.75-.17-1.49-.26-2.23Z"/><path d="M27.82,25.37c0,.81,0,1.62,0,2.43-.23,4.45-.72,8.85-2.6,13-1.81,4-4.71,6.51-9.2,6.89a7,7,0,0,1-1.12-.09v-.33a6.77,6.77,0,0,1,.73-.15A10.16,10.16,0,0,0,24.35,41c2-4.1,2.58-8.53,2.81-13,0-.88,0-1.76,0-2.64Z"/><path d="M15.27.5a9.93,9.93,0,0,1,8.48,4.44,21.47,21.47,0,0,1,3.54,9.82c.37,2.68.43,5.4.61,8.11a6.89,6.89,0,0,1-.09,1.1h-.36c0-.47-.12-.93-.13-1.4C27.17,17.78,26.79,13,25,8.5c-1.48-3.62-3.8-6.37-7.85-7.22-.64-.13-1.3-.21-2-.32Z"/></svg>