<?xml version="1.0" encoding="utf-8"?>
<!-- Generator: Adobe Illustrator 25.4.1, SVG Export Plug-In . SVG Version: 6.00 Build 0)  -->
<svg version="1.1" id="Layer_1" xmlns="http://www.w3.org/2000/svg" xmlns:xlink="http://www.w3.org/1999/xlink" x="0px" y="0px"
	 viewBox="0 0 28.35 48.19" style="enable-background:new 0 0 28.35 48.19;" xml:space="preserve">
<style type="text/css">
	.st0{fill:none;stroke:#ED1C24;stroke-width:0.7087;stroke-miterlimit:10;}
</style>
<path class="st0" d="M2.34,34.99c0.06,3.13,0.93,4.73,1.17,5.19c0.23,0.46,4.14,7.83,13.31,6.67c9.53-1.47,10.28-8.31,10.58-10.14
	c0.31-1.83,0.14-6.28-4.08-9.44s-9.86-2.97-12.72-2.97v0c2.86,0,8.5,0.19,12.72-2.97s4.39-7.61,4.08-9.44S26.34,3.2,16.81,1.73
	C7.64,0.56,3.74,7.93,3.5,8.4c-0.23,0.46-1.11,2.06-1.17,5.19H1.88c0.06-3.13,0.93-4.73,1.17-5.19c0.23-0.46,4.14-7.83,13.31-6.67
	c9.53,1.47,10.28,8.31,10.58,10.14s0.14,6.28-4.08,9.44s-9.86,2.97-12.72,2.97v0c2.86,0,8.5-0.19,12.72,2.97s4.39,7.61,4.08,9.44
	c-0.31,1.83-1.06,8.67-10.58,10.14c-9.17,1.17-13.07-6.2-13.31-6.67c-0.23-0.46-1.11-2.06-1.17-5.19H2.34z"/>
</svg>
