<svg id="Layer_1" data-name="Layer 1" xmlns="http://www.w3.org/2000/svg" viewBox="0 0 28.35 48.19"><defs><style>.cls-1{fill:#231f20;}</style></defs><ellipse cx="20.29" cy="40.26" rx="0.34" ry="9.29"/><path d="M28.16,33.12c-2.52,0-5.11,0-7.63,0,0,0,0-.21,0-.38h7.68C28.17,32.86,28.16,33,28.16,33.12Z"/><path d="M.17,32.39c.19-.33.43-.68.63-1h0C6.92,21,12.92,10.85,19,.51c0,.06.26,0,.13.19-2,3.3-15.57,26.22-18.3,31C.33,32.59.27,32.36.17,32.39Z"/><ellipse cx="20.3" cy="16.36" rx="0.21" ry="21.59"/><path class="cls-1" d="M1.27,32.6H18.45c0,.09.08.41,0,.4-1.7-.05-17.15,0-17.15,0A1.52,1.52,0,0,1,1.27,32.6Z"/></svg>