<svg id="Layer_1" data-name="Layer 1" xmlns="http://www.w3.org/2000/svg" viewBox="0 0 28.35 48.19"><path d="M28.1,32.19a42.53,42.53,0,0,1-1,4.64c-1.28,4-3.38,7.32-7.3,9.19a10.2,10.2,0,0,1-6.64.91C5.55,45.28,1.21,40.46.51,32.87a13.71,13.71,0,0,0-.25-1.4v-.24c.63-.35.69,0,.79.55a40,40,0,0,0,1.13,5.48c2.18,6.51,10,10.67,16.11,8.65,4.43-1.47,6.78-4.93,8.12-9.11a56.27,56.27,0,0,0,1.26-6.6l.43.55Z"/><path d="M.26,27.15C.51,24.77.78,22.4,1,20A22.05,22.05,0,0,1,9,4.36,19.21,19.21,0,0,1,21.81.05a4.5,4.5,0,0,1,.8.15V.57a5.92,5.92,0,0,1-.93.12C11.43.36,3.09,8.73,2,18.19c-.42,3.49-.66,7-1,10.5,0,.47.07,1-.72.86Z"/><path d="M2.45,23.26c1.71-4,10.72-8.22,17.14-5.58,3.8,1.57,8.23,7.33,7.47,10.06a6.33,6.33,0,0,1-.42-.74c-.45-1-.82-2.09-1.34-3.07-2.8-5.24-7.71-7.43-13.5-6a15.4,15.4,0,0,0-8.78,5A2,2,0,0,1,2.45,23.26Z"/></svg>