<svg id="Layer_1" data-name="Layer 1" xmlns="http://www.w3.org/2000/svg" viewBox="0 0 28.35 48.19"><path d="M.15,35.31c.33,0,.67-.09.68.14C1.19,41.86,6.12,46,11.89,46.81a14.56,14.56,0,0,0,12-3.33A10.1,10.1,0,0,0,27.29,37c0-.29.11-.58.17-.87h.42a5.74,5.74,0,0,1,0,1.31C27,42.78,23.41,45.75,18.39,47c-5.58,1.42-10.71.44-15-3.62a10.18,10.18,0,0,1-3-5.88c-.06-.34-.17-.68-.26-1Z"/><path d="M2,13.53c2,7.71,7.21,10.66,14.62,9.65,5.32-.72,8.26-4,9.37-9.6.12,0,.51,0,.62-.05a4.13,4.13,0,0,1-.18,1c-.62,4.09-3,6.75-6.72,8.38-.33.15-.66.27-1,.4l-1.27.45a15.76,15.76,0,0,1,7.59,4c2.06,2.14,2.5,4.17,2.85,7.32-.11-.16-.48.05-.49-.11-.34-5.74-3.88-8.67-9-10.18A15.13,15.13,0,0,0,5.53,26.72,9.78,9.78,0,0,0,1.07,33a2.92,2.92,0,0,1-.14.6s-.41-.13-.48-.12c.7-4.26,3.45-7.27,10.26-9.71-4.48-1.44-7.06-3-9.11-9.72C1.44,13.52,1.55,13.72,2,13.53Z"/><path d="M26,11.77c-1.3-6.15-4.24-9.4-10.11-10C8.54,1.06,3.6,4.18,2.18,11.86l-.52-.14A11.82,11.82,0,0,1,2,10,10.67,10.67,0,0,1,11.1,1.31c5-.83,9.24-.27,12.57,3.42a10.27,10.27,0,0,1,2.77,6.4,4.79,4.79,0,0,1,.08.65C26.42,11.75,26.06,11.8,26,11.77Z"/></svg>