<svg id="Layer_1" data-name="Layer 1" xmlns="http://www.w3.org/2000/svg" viewBox="0 0 28.35 48.19"><defs><style>.cls-1{fill:#fff;}</style></defs><path class="cls-1" d="M1.12,20.64l-.32.1a2.34,2.34,0,0,0,.1.85c1,1.93,1.78,4.08,3.17,5.71,3,3.52,6.94,5,11.51,3.62a26.33,26.33,0,0,0,9.48-5.51c.07-.06.09-.19.13-.29l-.14-.26c-.3.16-.62.31-.92.49-2.49,1.49-4.91,3.11-7.48,4.47-4.36,2.29-9.8.2-12.18-3A43.38,43.38,0,0,1,1.63,21.7C1.44,21.36,1.29,21,1.12,20.64Z"/><path d="M5.57,48c-.39-.87.29-.67.72-.73a37.35,37.35,0,0,0,6-.91A19.19,19.19,0,0,0,25.62,32.2,50.93,50.93,0,0,0,27,15.78,15,15,0,0,0,23.2,6.31l.34-.43a2.65,2.65,0,0,1,.64.61,13.77,13.77,0,0,1,3,6.19,33.06,33.06,0,0,1,.37,10.73A63.63,63.63,0,0,1,26,33.33,19.92,19.92,0,0,1,8.06,47.82c-.51,0-1,.14-1.53.21Z"/><path d="M.05,15.14a46.42,46.42,0,0,1,1.5-5.25C3.23,5.8,5.87,2.57,10.41,1.51s8.54.57,12.07,3.4c0,.12-.3.33-.34.46a5.13,5.13,0,0,1-.7-.44,33.77,33.77,0,0,0-4.07-2.25C11.62.46,6.12,2.66,3,8.32A18.66,18.66,0,0,0,.72,16.07c0,.35-.45.15-.72.17C0,15.6.05,15.78.05,15.14Z"/><path d="M.84,19.86c.17.35.33.71.52,1.05A42.11,42.11,0,0,0,4.2,26,10.21,10.21,0,0,0,16.87,29a36.87,36.87,0,0,0,7-4.39,5.72,5.72,0,0,1,.92-.48l.14.25c-.05.1-.06.23-.14.3a26.49,26.49,0,0,1-9.47,5.5C10.73,31.5,6.79,30,3.79,26.51,2.41,24.88,1.64,22.73.62,20.8A2.25,2.25,0,0,1,.32,20Z"/></svg>