<?xml version="1.0" encoding="utf-8"?>
<!-- Generator: Adobe Illustrator 27.7.0, SVG Export Plug-In . SVG Version: 6.00 Build 0)  -->
<svg version="1.1" id="Layer_1" xmlns="http://www.w3.org/2000/svg" xmlns:xlink="http://www.w3.org/1999/xlink" x="0px" y="0px"
	 viewBox="0 0 28.4 48.2" style="enable-background:new 0 0 28.4 48.2;" xml:space="preserve">
<path d="M0.3,47c0.8-3,1.6-6.1,2.4-9.1c3-12,6.1-24,9.1-36.1c0.4-0.1,0.7,0.1,0.8,0.3c-1.1,4.2-2,7.6-3,11.8L1.2,47
	c-0.1,0.2-0.3,0.5-0.3,0.8C0.4,47.8,0.1,48,0.3,47z"/>
<path d="M28,47.4l-0.8,0.2c-4.3-15.2-8.8-30.3-13-45.4C14.5,2.1,14.6,2,14.9,2c2.7,9.5,5.8,19.8,8.5,29.3c1.4,5.1,2.8,10.1,4.3,15.2
	c0.1,0.2,0.2,0.4,0.3,0.7V47.4z"/>
<path d="M9.1,26l1.6,0c2.7,0,5.2,0,7.9,0c0.1,0.2,0,0.4,0.2,0.8c-3.6,0-6.1,0-9.7,0"/>
</svg>
