<?xml version="1.0" encoding="utf-8"?>
<!-- Generator: Adobe Illustrator 27.7.0, SVG Export Plug-In . SVG Version: 6.00 Build 0)  -->
<svg version="1.1" id="Layer_1" xmlns="http://www.w3.org/2000/svg" xmlns:xlink="http://www.w3.org/1999/xlink" x="0px" y="0px"
	 viewBox="0 0 28.4 48.2" style="enable-background:new 0 0 28.4 48.2;" xml:space="preserve">
<path d="M2,2.4c0.3,0,0.6,0,0.6,0s0,5.1,0,7.2c0,4.2,0.1,8.5,0.1,12.7c0,7.8,0,15.6-0.1,23.4l0,1.7l-0.7,0"/>
<path d="M24.9,12.2c-0.4-3.8-3.3-6.3-6.6-7.6c-4-1.4-7.7-1.6-11.9-1.3c-0.6,0-1.2,0.1-1.8,0.1l0-0.7c0.4,0,0.3,0,0.5,0
	c5.6-0.4,11.1-0.3,16.1,2.5c2.5,1.3,4.1,4.2,4.5,7"/>
<path d="M4.8,23.1C5.2,23,5.3,23,5.7,23c4.3-0.2,8.9-0.3,12.9-2c1.7-0.7,3.2-1.6,4.5-2.8c0.9-0.9,1.9-2.9,2-4.3
	c0.3-0.2,0.5-0.1,0.7-0.1c-0.4,2.6-1.7,4.8-3.9,6.2c-2.4,1.6-5,2.5-7.9,2.9c-2.6,0.4-5.4,0.6-8.1,0.8c-0.6,0-0.7,0.2-1.2,0L4.8,23.1
	z"/>
<path d="M4.7,46.8c4.5-0.1,7.4-0.2,12.3-1.9c1.6-0.7,2.9-1.3,4.4-2.6c1.6-1.1,2.8-2.9,3.1-4.9c0.1-0.7,0.1-0.7,0.9-0.6
	c-0.1,2.3-1.3,4.2-3,5.7c-2.8,2.5-6.4,3.6-10.1,4.3c-3.2,0.4-4.5,0.4-6.8,0.6C4.7,47.5,4.6,47.6,4.7,46.8z"/>
<path d="M24.5,35c-0.8-3.4-2.5-4-4.6-5.1c-3.4-1.6-7-2.5-10.7-2.7c-1.5-0.2-2.5-0.1-4.5-0.3c0.1-0.4,0-0.6,0.3-0.6
	c5.4,0.2,10.9,0.6,15.7,3.2c2.4,1.1,4.1,2.9,4.6,5.4"/>
</svg>
