<?xml version="1.0" encoding="utf-8"?>
<!-- Generator: Adobe Illustrator 25.2.3, SVG Export Plug-In . SVG Version: 6.00 Build 0)  -->
<svg version="1.1" id="Layer_1" xmlns="http://www.w3.org/2000/svg" xmlns:xlink="http://www.w3.org/1999/xlink" x="0px" y="0px"
	 viewBox="0 0 28.4 48.2" style="enable-background:new 0 0 28.4 48.2;" xml:space="preserve">
<path d="M2.1,3.2c0.2,0.3,0.7,0,0.7,0.2c0,2.1,0,4.2,0,6.3c0,4.2-0.1,8.4-0.1,12.6c0,7.8,0,15.6-0.1,23.4v0.9l-0.8,0.1"/>
<path d="M1.7,29.7L1.8,3.9"/>
<path d="M4.3,3.3C4.6,3.1,4.8,2.6,5,2.6c5.6-0.4,11.1-0.3,16.1,2.5c2.5,1.3,4.2,3.6,4.6,6.4c0.1,0.5,0.1,0.9,0.1,1.4l-0.3,0.2
	c-0.2-0.2-0.6-0.5-0.7-0.8c-0.4-3.8-2.8-6-6.1-7.3c-4-1.4-8.2-1.9-12.4-1.6c-0.6,0-1.2,0.1-1.8,0.1L4.3,3.3z"/>
<path d="M4.4,23.2c0.4-0.1,0.9-0.2,1.3-0.2c4.3-0.2,8.9-0.3,12.9-2c1.7-0.7,3.2-1.6,4.5-2.8c0.9-0.9,1.9-2.9,2-4.3
	c0.2-0.3,0.3-0.1,0.7-0.3c0,2.6-1.4,5.1-3.6,6.5c-2.4,1.6-5.2,2.7-8.1,3.1c-2.6,0.4-5.3,0.4-8,0.6c-0.6,0-1.1,0.1-1.6-0.1L4.4,23.2z
	"/>
<path d="M4.7,45.8c4.1-0.1,8.2-0.8,12.1-2.2c1.6-0.7,3.1-1.5,4.5-2.5c1.6-1.1,2.6-2.8,2.9-4.8c0.1-0.7,0.3-1.1,1.1-0.7
	c-0.1,2.3-1.2,4.4-2.9,5.9c-2.8,2.5-6.3,3.7-10,4.4c-2.3,0.4-4.6,0.6-6.9,0.8C5,46.8,4.4,46.8,4.7,45.8z"/>
<path d="M24.4,34.3c-0.7-2.3-2.4-4.1-4.5-5.2c-3.4-1.6-7-2.6-10.7-2.8c-1.5-0.2-3-0.2-5-0.4c0.5-0.5,0.7-0.9,1-0.9
	c5.4,0.2,10.7,0.8,15.5,3.4c2.4,1.1,4.1,3.2,4.6,5.7"/>
</svg>
