<?xml version="1.0" encoding="utf-8"?>
<!-- Generator: Adobe Illustrator 27.7.0, SVG Export Plug-In . SVG Version: 6.00 Build 0)  -->
<svg version="1.1" id="Layer_1" xmlns="http://www.w3.org/2000/svg" xmlns:xlink="http://www.w3.org/1999/xlink" x="0px" y="0px"
	 viewBox="0 0 28.4 48.2" style="enable-background:new 0 0 28.4 48.2;" xml:space="preserve">
<path d="M2,17.8C4.3,9.2,10.1,4.3,18.5,1.9c1.5-0.4,2.9-0.6,4.4-1h1l0,1C18.2,2.6,13,4.4,8.8,8.3s-6.2,9-6.6,14.7l-1,0.1"/>
<path d="M1.4,26.1l1-0.1c0.3,1.7,0.5,3.5,0.8,5.1c1.9,8.1,7.6,12.9,15.9,13.3c2.3,0.2,3.3-0.2,4.6-0.6c0.4,0.1,0.2,0.4,0.5,0.7
	C15.3,47.4,5.1,42.3,2.9,33c-0.5-1.8-1-3.9-1.3-5.7c0-0.3-0.1-0.6-0.2-0.9L1.4,26.1z"/>
</svg>
