<?xml version="1.0" encoding="utf-8"?>
<!-- Generator: Adobe Illustrator 25.2.3, SVG Export Plug-In . SVG Version: 6.00 Build 0)  -->
<svg version="1.1" id="Layer_1" xmlns="http://www.w3.org/2000/svg" xmlns:xlink="http://www.w3.org/1999/xlink" x="0px" y="0px"
	 viewBox="0 0 28.4 48.2" style="enable-background:new 0 0 28.4 48.2;" xml:space="preserve">
<path d="M26.6,26c-0.2,1.4-0.3,2.8-0.6,4.1c-1.7,8.9-7.3,14.1-16,16.2c-1.1,0.3-2.2,0.5-3.3,0.7H3.8l0.3-1c2.5-0.1,4.9-0.5,7.2-1.1
	c2.9-0.9,5.7-2.3,8.1-4.5c2.2-2.1,3.8-4.5,4.7-7.1c0.9-2.4,1.3-5,1.4-7.7h1.1C26.6,25.6,26.6,26,26.6,26z"/>
<path d="M4.7,2c2,0.6,4,1.2,6,1.9c4.8,1.7,9,4.7,12.1,8.8c2,2.8,3.3,6.2,3.5,9.6c0,0.3,0.1,0.7,0.2,1v1l-1-0.1
	c-0.4-5.4-2.1-9.4-4.8-12.5c-1.9-2.2-4.2-3.8-6.8-5.2C11,5,7.6,3.8,4,2.9L4.2,2H4.7z"/>
<path d="M2.5,46.6c-0.8,0.3-1-0.1-1-0.7c0-1.8,0-3.6,0-5.4c0-12.3,0-24.6,0-36.8c0-0.2,0-0.5,0-0.7C1.7,2.7,1.8,2.4,2,2.2
	C2.2,2.5,2.4,2.7,2.6,3c0,0.1,0,0.2,0,0.3c0,14.3-0.1,28.6-0.1,42.8C2.5,46.3,2.5,46.4,2.5,46.6z"/>
</svg>
