<?xml version="1.0" encoding="utf-8"?>
<!-- Generator: Adobe Illustrator 25.2.3, SVG Export Plug-In . SVG Version: 6.00 Build 0)  -->
<svg version="1.1" id="Layer_1" xmlns="http://www.w3.org/2000/svg" xmlns:xlink="http://www.w3.org/1999/xlink" x="0px" y="0px"
	 viewBox="0 0 28.4 48.2" style="enable-background:new 0 0 28.4 48.2;" xml:space="preserve">
<path d="M1.7,1.5c-0.1,0.4,0,0.8,0,1.2L1.6,46.8h-1v-4.3c0-7,0-14,0-21c0-6.7,0-13.3,0-20L1.7,1.5z"/>
<path d="M26.4,46.3c-0.5,0.1-1.1,0.2-1.6,0.2c-7.1,0-14.1,0-21.2,0.1c-0.7,0-1.2,0-0.8-0.9c0.4,0,0.9-0.1,1.3-0.1
	c7.3-0.1,14.5-0.1,21.8-0.1c0.2,0,0.4,0.1,0.6,0.1L26.4,46.3z"/>
<path d="M26,24H3.6c-0.3,0.1-0.8-0.1-1.1-0.1c-0.2-0.1-0.3-0.2-0.3-0.4c0-0.1,0.2-0.3,0.4-0.4C2.8,23,3,23,3.3,23H25
	C25.6,22.9,26.4,22.8,26,24z"/>
<path d="M2.8,2h2.8H26c0.1,0.9,0.1,0.7-0.7,0.7l-7-0.1l-14.4,0C3.2,2.7,2.8,2.7,2.8,2z"/>
</svg>
