<?xml version="1.0" encoding="utf-8"?>
<!-- Generator: Adobe Illustrator 25.2.3, SVG Export Plug-In . SVG Version: 6.00 Build 0)  -->
<svg version="1.1" id="Layer_1" xmlns="http://www.w3.org/2000/svg" xmlns:xlink="http://www.w3.org/1999/xlink" x="0px" y="0px"
	 viewBox="0 0 28.4 48.2" style="enable-background:new 0 0 28.4 48.2;" xml:space="preserve">
<path d="M1.6,19.8c0-5.6,0-11.2,0-16.8c0-0.6-0.1-1.3,1-0.9v1.3v37.5c0,1.8,0,3.5,0,5.2l-1,0.1"/>
<path d="M25.9,2.9h-21C4.6,2.3,4.7,2,5.5,2h20.4V2.9z"/>
<path d="M4.8,22c6.7,0,13.3,0,20,0c0.3,0,0.5,0.4,0.8,0.5C25.3,22.7,25,23,24.8,23c-6.5,0-13-0.1-19.5-0.2c-0.3,0-0.5-0.4-0.8-0.6
	L4.8,22z"/>
</svg>
