<?xml version="1.0" encoding="utf-8"?>
<!-- Generator: Adobe Illustrator 25.2.3, SVG Export Plug-In . SVG Version: 6.00 Build 0)  -->
<svg version="1.1" id="Layer_1" xmlns="http://www.w3.org/2000/svg" xmlns:xlink="http://www.w3.org/1999/xlink" x="0px" y="0px"
	 viewBox="0 0 28.4 48.2" style="enable-background:new 0 0 28.4 48.2;" xml:space="preserve">
<path d="M0.8,6c0.9-0.3,1.1,0.1,1.1,0.9c0,3.2,0,6.4,0.1,9.6C2,24.7,2,33,2,41.3c0,0.1,0,0.2-0.1,0.2C1,41.9,1,41.4,1,40.7
	c0-3.5,0-7,0-10.4"/>
<path d="M25.4,1.1c0,1,0.1,1.9,0,2.9c0,0.7,0,0.7-1,0.7V2.1H1.9c0,0.6,0,1,0,1.5C2,4.5,1.8,4.9,0.9,4.5V1.2c3,0,6,0,8.9,0"/>
<path d="M27.9,33.4h-9.7c-0.3-0.7,0-0.9,0.8-0.9c3,0,6,0,9,0L27.9,33.4z"/>
<path d="M23.3,44.7V34.1c0.4,0.1,0.9,0.8,0.9,1.1c0,3.5,0,7,0,10.6h-23v-2.4c1.3-0.5,0.6,0.8,0.9,1.4L23.3,44.7z"/>
</svg>
