<?xml version="1.0" encoding="utf-8"?>
<!-- Generator: Adobe Illustrator 25.2.3, SVG Export Plug-In . SVG Version: 6.00 Build 0)  -->
<svg version="1.1" id="Layer_1" xmlns="http://www.w3.org/2000/svg" xmlns:xlink="http://www.w3.org/1999/xlink" x="0px" y="0px"
	 viewBox="0 0 28.4 48.2" style="enable-background:new 0 0 28.4 48.2;" xml:space="preserve">
<path d="M2.4,1.7h1.1v43.6c0,0.4-0.1,0.9-0.1,1.3h-1L2.4,1.7z"/>
<path d="M26.1,46.6h-1.2l0.1-9.2c0-0.3,0-0.6,0-1c0-11.1-0.1-22.2-0.1-33.4c0-0.5-0.3-1.4,1-1.1v8c0,4,0,8,0,12"/>
<path d="M5,24.7c-0.3-0.7-0.1-1,0.6-1c5.6,0,11.3-0.1,16.9-0.1c0.3,0,0.5,0.3,0.8,0.5c-0.3,0.2-0.5,0.5-0.8,0.5c-3.8,0-7.7,0-11.5,0
	L5,24.7z"/>
</svg>
