<?xml version="1.0" encoding="utf-8"?>
<!-- Generator: Adobe Illustrator 25.2.3, SVG Export Plug-In . SVG Version: 6.00 Build 0)  -->
<svg version="1.1" id="Layer_1" xmlns="http://www.w3.org/2000/svg" xmlns:xlink="http://www.w3.org/1999/xlink" x="0px" y="0px"
	 viewBox="0 0 28.4 48.2" style="enable-background:new 0 0 28.4 48.2;" xml:space="preserve">
<path d="M1.6,2.2h25C26.7,3,26.7,3,25.8,3c-2.6,0-5.2,0.1-7.8,0.1c-5.5,0-11,0.1-16.5,0.1L1.6,2.2z"/>
<path d="M1.6,45.3L27,45.1v1c-0.7,0-1.3,0.1-2,0.1L1.6,46.3L1.6,45.3z"/>
<path d="M14.6,4.8v38.9c-0.8,0.3-0.9-0.2-0.9-0.8c0-3.2-0.1-6.5-0.1-9.7c0-4.9,0-9.9,0-14.8c0-4.2,0-8.4-0.1-12.7
	C13.6,5,13.6,4.3,14.6,4.8z"/>
</svg>
