<?xml version="1.0" encoding="utf-8"?>
<!-- Generator: Adobe Illustrator 25.4.1, SVG Export Plug-In . SVG Version: 6.00 Build 0)  -->
<svg version="1.1" id="Layer_1" xmlns="http://www.w3.org/2000/svg" xmlns:xlink="http://www.w3.org/1999/xlink" x="0px" y="0px"
	 viewBox="0 0 28.35 48.19" style="enable-background:new 0 0 28.35 48.19;" xml:space="preserve">
<style type="text/css">
	.st0{fill:none;stroke:#ED1C24;stroke-width:0.7087;stroke-miterlimit:10;}
</style>
<path class="st0" d="M27.68,17.88c0,3.02-0.42,13.84-3.12,18.42c-6,10.17-13.83,10.83-18.46,10.83H5.67
	c4.62,0,12.46-0.67,18.46-10.83c2.7-4.58,3.12-11.42,3.12-18.42c0,0,0.81,4.75-3.69,8.71s-8.1,4.04-9.94,4.04S4.28,30.72,1.2,20.24
	C-0.51,14.43,2.07,6.99,6.47,3.45c1.99-1.6,8.41-5.29,16.71,1.81C27.22,8.72,27.68,14.86,27.68,17.88z"/>
</svg>
