<?xml version="1.0" encoding="utf-8"?>
<!-- Generator: Adobe Illustrator 25.4.1, SVG Export Plug-In . SVG Version: 6.00 Build 0)  -->
<svg version="1.1" id="Layer_1" xmlns="http://www.w3.org/2000/svg" xmlns:xlink="http://www.w3.org/1999/xlink" x="0px" y="0px"
	 viewBox="0 0 28.35 48.19" style="enable-background:new 0 0 28.35 48.19;" xml:space="preserve">
<style type="text/css">
	.st0{fill:none;stroke:#ED1C24;stroke-width:0.7087;stroke-miterlimit:10;}
</style>
<path class="st0" d="M0.66,30.6c0-3.02,0.42-13.84,3.12-18.42c6-10.17,13.83-10.83,18.46-10.83h0.42c-4.62,0-12.46,0.67-18.46,10.83
	C1.51,16.76,1.09,23.6,1.09,30.6c0,0-0.81-4.75,3.69-8.71s8.1-4.04,9.94-4.04s9.36-0.09,12.44,10.4c1.71,5.81-0.88,13.25-5.27,16.79
	c-1.99,1.6-8.41,5.29-16.71-1.81C1.13,39.76,0.66,33.62,0.66,30.6z"/>
</svg>
