<?xml version="1.0" encoding="UTF-8"?><svg id="a" xmlns="http://www.w3.org/2000/svg" viewBox="0 0 638.89 217.34"><defs><style>.b{fill:#231f20;}</style></defs><path class="b" d="m139.39,124.75c0,16.75,12,25.5,28.25,25.25,9.75-.25,20.75-5.75,26.75-9.75V51h18.25v99.25c0,12.75-.75,32-6,42-9.25,17.5-35.25,24.5-53.75,25l-3-11.5c14-2,34-4,41.5-18.25,3.75-7,4-20.75,4-28.75,0-2.75.25-2,0-4.75-5.5,2.5-17.75,8.5-39.25,8.5-16.5,0-35.25-11.75-35.25-32V54.5l18.5-6.25v76.75-.25Z"/><path class="b" d="m319.64,160.5h-76.5V6l18.25-6v147.5h51.5l6.75,13Z"/><path class="b" d="m477.39,160.5V30.5l-49.75,126.75-15.5,5.5-51.5-127.75v125.5h-12.75V6l18.25-6,56.5,134.5L474.39,3h21.25v157.5h-18.25Z"/><path class="b" d="m44.18,149.62c-10.39-.35-20.93-6.09-26.43-9.53v-71.25c2.28-2.28,12.85-8.49,26.43-8.83v-11.84C12.43,50.75.02,67.09.25,67.09l-.25,143.75,18,6.5v-64.75c8.3,5.06,16.76,8.48,26.18,9.6v-12.57Z"/><path class="b" d="m51.5,48.09l-.25-.25c-1.15.02-2.27.05-3.37.1v12.13c35.12-.94,36.57,89.75,0,89.44v12.99c63.1,4.33,61.67-116.17,3.62-114.41Z"/><path class="b" d="m576.18,149.3c-1.24.12-2.5.2-3.79.2-10.5,0-21.5-5.5-27.5-11V15.5h19.75c4.15.09,7.99.5,11.54,1.17V3l-49.79-.25v140c10.75,8.75,29.75,19.5,49.75,19.5.01,0,.03,0,.04,0v-12.95Z"/><path class="b" d="m579.37,3.05v14.33c31.46,7.85,38.77,38.84,38.77,68.87,0,26.5-12.54,57.85-38.77,62.61v13.29c36.39-2.14,59.52-40.25,59.52-77.9s-18.03-79.61-59.52-81.2Z"/></svg>